<?xml version="1.0" encoding="iso-8859-1"?>
<!-- Uploaded to: SVG Repo, www.svgrepo.com, Generator: SVG Repo Mixer Tools -->
<svg fill="#000000" version="1.1" id="Layer_1" xmlns="http://www.w3.org/2000/svg" xmlns:xlink="http://www.w3.org/1999/xlink" 
	 viewBox="0 0 512 512" xml:space="preserve">
<g>
	<g>
		<path d="M443.381,282.396h-15.835v155.707H84.454V79.175h343.093V256h15.835V42.455L478.76,0H33.24l35.379,42.455v427.09
			L33.24,512h445.519l-35.378-42.455V282.396z M67.049,15.835h377.904L427.546,36.72v26.62H84.454V36.72L67.049,15.835z
			 M444.951,496.165H67.049l17.405-20.885v-21.341h343.093v21.341L444.951,496.165z"/>
	</g>
</g>
<g>
	<g>
		<rect x="203.216" y="105.567" width="105.567" height="15.835"/>
	</g>
</g>
<g>
	<g>
		<rect x="329.897" y="105.567" width="21.113" height="15.835"/>
	</g>
</g>
<g>
	<g>
		<rect x="372.124" y="105.567" width="21.113" height="15.835"/>
	</g>
</g>
<g>
	<g>
		<rect x="160.99" y="105.567" width="21.113" height="15.835"/>
	</g>
</g>
<g>
	<g>
		<rect x="118.763" y="105.567" width="21.113" height="15.835"/>
	</g>
</g>
<g>
	<g>
		<rect x="203.216" y="395.876" width="105.567" height="15.835"/>
	</g>
</g>
<g>
	<g>
		<rect x="329.897" y="395.876" width="21.113" height="15.835"/>
	</g>
</g>
<g>
	<g>
		<rect x="372.124" y="395.876" width="21.113" height="15.835"/>
	</g>
</g>
<g>
	<g>
		<rect x="160.99" y="395.876" width="21.113" height="15.835"/>
	</g>
</g>
<g>
	<g>
		<rect x="118.763" y="395.876" width="21.113" height="15.835"/>
	</g>
</g>
<g>
	<g>
		<path d="M261.971,145.233L256,138.378l-5.971,6.854c-0.526,0.603-13.036,15.033-27.078,36.837l13.313,8.573
			c7.634-11.853,14.884-21.53,19.726-27.683c17.487,22.283,66.554,90.867,53.159,143.299c-5.345,20.925-20.542,37.283-45.233,48.737
			v-27.098l24.073-24.072l-11.196-11.198l-12.875,12.876v-30.39l24.072-24.072l-11.196-11.198l-12.876,12.876v-33.668h-15.835
			v33.668l-12.876-12.876l-11.196,11.197l24.072,24.072v30.39l-12.876-12.876l-11.196,11.198l24.072,24.072v27.074
			c-22.172-10.286-36.725-24.505-43.278-42.398c-6.827-18.638-8.637-52.065,21.508-105.468l-13.79-7.783
			c-26.211,46.434-34.022,87.479-22.587,118.697c9.222,25.181,30.526,44.105,63.315,56.249l2.75,1.019l2.75-1.019
			c36.195-13.405,58.316-34.979,65.749-64.118C342.665,238.941,265.274,149.026,261.971,145.233z"/>
	</g>
</g>
</svg>